# xmcd CD database file
#
# Track frame offsets:
#	150
#	25805
#	31720
#	42980
#	53480
#	66080
#	76365
#	90442
#	101652
#	111845
#	127690
#	150182
#	167420
#	178977
#	201477
#	220310
#
# Disc length: 3165 seconds
#
# Revision: 4
# Processed by: cddbd v1.5PL3 Copyright (c) Steve Scherf et al.
# Submitted via: CDex 1.51
#
DISCID=c40c5b10
DTITLE=Eric Clapton - For Your Love
DYEAR=1993
DGENRE=Rock
TTITLE0=She's So Respectable
TTITLE1=Choker
TTITLE2=Shake Drive
TTITLE3=Got To Hurry
TTITLE4=Freight Loader
TTITLE5=A Certain Girl
TTITLE6=Dragging My Tail
TTITLE7=For Your Love
TTITLE8=I Wish You Would
TTITLE9=Louise
TTITLE10=Five Long Years
TTITLE11=Early In The Morning
TTITLE12=Pounds And Stomps
TTITLE13=The First Time I Met The Blues
TTITLE14=Stormy Monday Blues
TTITLE15=Big Boss Man
EXTD=YEAR: 1993
EXTT0=
EXTT1=
EXTT2=
EXTT3=
EXTT4=
EXTT5=
EXTT6=
EXTT7=
EXTT8=
EXTT9=
EXTT10=
EXTT11=
EXTT12=
EXTT13=
EXTT14=
EXTT15=
PLAYORDER=
